<?xml version="1.0" encoding="UTF-8" standalone="no"?>
<!DOCTYPE svg PUBLIC "-//W3C//DTD SVG 1.1//EN" "http://www.w3.org/Graphics/SVG/1.1/DTD/svg11.dtd">
<svg width="100%" height="100%" viewBox="0 0 240 240" version="1.1" xmlns="http://www.w3.org/2000/svg" xmlns:xlink="http://www.w3.org/1999/xlink" xml:space="preserve" xmlns:serif="http://www.serif.com/" style="fill-rule:evenodd;clip-rule:evenodd;stroke-linejoin:round;stroke-miterlimit:2;">
    <g transform="matrix(1,0,0,1,-491.288,-142.828)">
        <g transform="matrix(0.576491,0.576491,-0.576491,0.576491,685.689,-195.828)">
            <path d="M319.482,371.147C329.062,361.903 348.111,365.894 352.069,379.817C355.23,390.939 346.398,404.014 334.448,404.772C324.08,405.43 313.982,396.577 313.578,385.945C313.368,380.425 315.286,375.293 319.482,371.147ZM324.414,376.622C321.035,380.124 320.003,385.66 321.943,390.091C325.094,397.288 335.977,399.739 341.859,393.857C345.693,390.023 346.526,383.516 343.682,378.836C339.813,372.47 329.903,371.066 324.414,376.622Z" style="fill:rgb(37,37,37);"/>
        </g>
        <g transform="matrix(0.707107,0.707107,-0.707107,0.707107,694.668,-282.132)">
            <path d="M269.93,370.831C270.422,370.357 270.949,369.924 271.507,369.532C287.538,358.663 303.588,347.818 319.853,337.303C323.707,334.862 328.912,334.849 332.786,337.303C348.998,347.784 364.913,358.718 380.976,369.427C384.181,371.6 386.226,375.327 386.318,379.223C386.739,433.195 386.66,487.172 386.318,541.144C386.201,547.319 380.862,552.867 374.474,552.988C342.371,553.191 310.267,553.191 278.164,552.988C271.984,552.871 266.443,547.615 266.32,541.144C265.979,487.234 266.319,433.322 266.319,379.411C266.344,376.178 267.414,373.329 269.93,370.831ZM275.436,376.639C274.761,377.351 274.36,378.301 274.321,379.286C273.056,433.208 273.298,487.169 274.321,541.097C274.386,543.153 276.2,544.95 278.265,544.989C310.318,545.195 342.378,545.601 374.425,544.988C376.486,544.922 378.279,543.111 378.319,541.043C378.655,487.125 379.573,433.19 378.317,379.285C378.269,378.052 377.638,376.877 376.64,376.154C360.865,365.094 344.582,354.779 328.552,344.092C327.22,343.204 325.443,343.215 324.133,344.062C308.037,354.683 291.788,365.086 275.997,376.155C275.796,376.3 275.609,376.461 275.436,376.639Z" style="fill:rgb(37,37,37);"/>
        </g>
        <path d="M715.28,154.977C717.304,155.171 717.439,155.662 717.985,156.252C719.392,157.771 719.591,159.95 717.879,161.799L658.541,221.137C655.616,223.846 649.032,219.64 652.884,215.48L712.222,156.142C713.009,155.413 713.549,154.944 715.28,154.977Z" style="fill:rgb(37,37,37);"/>
    </g>
</svg>
