<?xml version="1.0" encoding="UTF-8" standalone="no"?>
<!DOCTYPE svg PUBLIC "-//W3C//DTD SVG 1.1//EN" "http://www.w3.org/Graphics/SVG/1.1/DTD/svg11.dtd">
<svg width="100%" height="100%" viewBox="0 0 1176 192" version="1.1" xmlns="http://www.w3.org/2000/svg" xmlns:xlink="http://www.w3.org/1999/xlink" xml:space="preserve" xmlns:serif="http://www.serif.com/" style="fill-rule:evenodd;clip-rule:evenodd;stroke-linejoin:round;stroke-miterlimit:2;">
    <g id="large_trans" transform="matrix(1,0,0,1,-104,-54)">
        <g transform="matrix(0.972001,0,0,0.972001,87.6145,26.1597)">
            <path d="M834.475,220L819.142,220L833.475,183L798.309,96.667L814.642,96.667L841.309,163.833L841.975,163.833L869.309,96.667L885.642,96.667L834.475,220ZM471,109.667L446.833,109.667L446.833,160C446.833,164.667 448.111,167.556 450.667,168.667C452.778,169.556 455.5,170 458.833,170C462.167,170 465.833,169.111 469.833,167.333L471,167.333L471,179.667C466.333,182.111 461.333,183.333 456,183.333C439.778,183.333 431.667,176 431.667,161.333L431.667,109.667L415.833,109.667L415.833,108.667L446.833,78.333L446.833,96.667L471,96.667L471,109.667ZM551.333,117.5L550.667,117.5C542.444,111.944 533.528,109.167 523.917,109.167C514.306,109.167 506.778,111.917 501.333,117.417C495.889,122.917 493.167,130.167 493.167,139.167C493.167,148.167 495.889,155.417 501.333,160.917C506.778,166.417 514.306,169.167 523.917,169.167C533.528,169.167 542.444,166.389 550.667,160.833L551.333,160.833L551.333,175.167C542.111,180.611 532.5,183.333 522.5,183.333C510.167,183.333 499.667,179.333 491,171.333C482.333,163.333 478,152.611 478,139.167C478,125.722 482.333,115 491,107C499.667,99 510.167,95 522.5,95C532.5,95 542.111,97.722 551.333,103.167L551.333,117.5ZM342.833,115L341.833,115L341.833,101.333C351.5,97.111 361.861,95 372.917,95C383.972,95 392.444,98.222 398.333,104.667C404.222,111.111 407.167,118.833 407.167,127.833L407.167,181.667L393.833,181.667L392,171L391.5,171C383.5,179.222 373.222,183.333 360.667,183.333C353.111,183.333 346.694,181.056 341.417,176.5C336.139,171.944 333.5,165.722 333.5,157.833C333.5,149.944 336.75,143.556 343.25,138.667C349.75,133.778 359.278,131.333 371.833,131.333L392,131.333L392,130C392,122.667 390.194,117.389 386.583,114.167C382.972,110.944 376.722,109.333 367.833,109.333C358.944,109.333 350.611,111.222 342.833,115ZM1031.23,115L1030.23,115L1030.23,101.333C1039.9,97.111 1050.26,95 1061.32,95C1072.37,95 1080.84,98.222 1086.73,104.667C1092.62,111.111 1095.57,118.833 1095.57,127.833L1095.57,181.667L1082.23,181.667L1080.4,171L1079.9,171C1071.9,179.222 1061.62,183.333 1049.07,183.333C1041.51,183.333 1035.09,181.056 1029.82,176.5C1024.54,171.944 1021.9,165.722 1021.9,157.833C1021.9,149.944 1025.15,143.556 1031.65,138.667C1038.15,133.778 1047.68,131.333 1060.23,131.333L1080.4,131.333L1080.4,130C1080.4,122.667 1078.59,117.389 1074.98,114.167C1071.37,110.944 1065.12,109.333 1056.23,109.333C1047.34,109.333 1039.01,111.222 1031.23,115ZM221.167,181.667L206,181.667L168,65.333L183.833,65.333L213.167,161.333L213.667,161.333L243.333,65.333L256.5,65.333L286.167,161.333L286.667,161.333L316,65.333L331.833,65.333L293.833,181.667L278.667,181.667L250.333,91.333L249.5,91.333L221.167,181.667ZM674.475,181.667L659.309,181.667L659.309,65.333L682.975,65.333L723.475,164.833L723.809,164.833L764.309,65.333L787.975,65.333L787.975,181.667L772.809,181.667L772.809,81.333L772.475,81.333L731.475,181.667L715.809,181.667L674.642,81.333L674.475,81.333L674.475,181.667ZM581.333,181.667L566.167,181.667L566.167,60L581.333,60L581.333,109.833L581.833,109.833C590.833,99.944 601,95 612.333,95C621.556,95 628.833,98.111 634.167,104.333C639.5,110.556 642.167,118.333 642.167,127.667L642.167,181.667L627,181.667L627,129.333C627,115.778 620.889,109 608.667,109C599,109 589.889,114.333 581.333,125L581.333,181.667ZM969.463,79.5L929.296,79.5L929.296,181.667L914.13,181.667L914.13,79.5L873.963,79.5L873.963,65.333L969.463,65.333L969.463,79.5ZM1165.9,181.667L1150.73,181.667L1150.73,96.667L1164.07,96.667L1165.9,107.333L1165.9,109.833L1166.23,109.833C1175.23,99.944 1185.45,95 1196.9,95C1206.12,95 1213.4,98.111 1218.73,104.333C1224.07,110.556 1226.73,118.333 1226.73,127.667L1226.73,181.667L1211.57,181.667L1211.57,129.333C1211.57,115.778 1205.45,109 1193.23,109C1183.57,109 1174.45,114.333 1165.9,125L1165.9,181.667ZM986.066,181.667L970.899,181.667L970.899,96.667L984.233,96.667L986.066,107.333L986.066,109.833L986.399,109.833C994.399,99.944 1004.84,95 1017.73,95L1019.07,95L1019.07,109.5L1017.73,109.5C1011.18,109.5 1005.07,110.778 999.399,113.333C993.733,115.889 989.288,119.444 986.066,124L986.066,181.667ZM1130.4,181.667L1115.23,181.667L1115.23,96.667L1130.4,96.667L1130.4,181.667ZM392,157.5L392,143.5L373.833,143.5C357.056,143.5 348.667,147.917 348.667,156.75C348.667,165.583 354.556,170 366.333,170C371.222,170 375.944,168.806 380.5,166.417C385.056,164.028 388.889,161.056 392,157.5ZM1080.4,157.5L1080.4,143.5L1062.23,143.5C1045.45,143.5 1037.07,147.917 1037.07,156.75C1037.07,165.583 1042.95,170 1054.73,170C1059.62,170 1064.34,168.806 1068.9,166.417C1073.45,164.028 1077.29,161.056 1080.4,157.5ZM1131.07,78.667L1114.73,78.667L1114.73,62.333L1131.07,62.333L1131.07,78.667Z" style="fill:white;fill-rule:nonzero;"/>
        </g>
        <g transform="matrix(1,0,0,1,-60,-18)">
            <path d="M256,234L256,260C256,261.061 255.579,262.078 254.828,262.828C254.078,263.579 253.061,264 252,264C240.509,264 207.491,264 196,264C194.939,264 193.922,263.579 193.172,262.828C192.421,262.078 192,261.061 192,260C192,251.832 192,234 192,234L188,234C174.745,234 164,223.255 164,210L164,126C164,112.745 174.745,102 188,102L192,102L192,76C192,74.939 192.421,73.922 193.172,73.172C193.922,72.421 194.939,72 196,72C207.491,72 240.509,72 252,72C253.061,72 254.078,72.421 254.828,73.172C255.579,73.922 256,74.939 256,76C256,84.168 256,102 256,102L260,102C273.255,102 284,112.745 284,126L284,210C284,223.253 273.257,233.998 260,234L256,234ZM272,126C272,119.373 266.627,114 260,114C241.556,114 206.444,114 188,114C181.373,114 176,119.373 176,126C176,146.779 176,189.221 176,210C176,216.627 181.373,222 188,222C206.444,222 241.556,222 260,222C266.627,222 272,216.627 272,210C272,189.221 272,146.779 272,126ZM235.614,195.141C234.174,197.696 231.486,199.415 228.41,199.415C223.82,199.415 220.092,195.585 220.092,190.868C220.092,190.868 208.447,190.868 208.447,190.868C188.484,190.868 188.484,183.175 190.98,178.047C194.04,171.758 201.856,162.056 220.612,149.842C232.352,142.196 243.231,139.585 256.691,139.585L266,139.585L266,199.244C265.462,199.356 264.906,199.415 264.336,199.415C261.261,199.415 258.573,197.696 257.133,195.141L235.614,195.141ZM211.333,164.257C210.955,164.294 210.596,164.084 210.434,163.731C210.273,163.378 210.345,162.959 210.613,162.684C216.72,156.69 225.34,152.213 234.437,149.379C234.878,149.243 235.356,149.32 235.735,149.588C236.115,149.857 236.357,150.287 236.392,150.759C236.566,153.085 235.647,155.376 233.45,158.161C232.631,159.216 231.504,159.974 230.235,160.322C224.403,161.94 218.147,163.551 211.333,164.257Z" style="fill:url(#_Linear1);"/>
        </g>
    </g>
    <defs>
        <linearGradient id="_Linear1" x1="0" y1="0" x2="1" y2="0" gradientUnits="userSpaceOnUse" gradientTransform="matrix(-0.18127,240,-240,-0.18127,222.799,49.5)"><stop offset="0" style="stop-color:rgb(255,0,137);stop-opacity:1"/><stop offset="1" style="stop-color:rgb(205,0,122);stop-opacity:1"/></linearGradient>
    </defs>
</svg>
