<?xml version="1.0" encoding="UTF-8" standalone="no"?><!DOCTYPE svg PUBLIC "-//W3C//DTD SVG 1.1//EN" "http://www.w3.org/Graphics/SVG/1.1/DTD/svg11.dtd"><svg width="100%" height="100%" viewBox="0 0 1000 750" version="1.1" xmlns="http://www.w3.org/2000/svg" xmlns:xlink="http://www.w3.org/1999/xlink" xml:space="preserve" xmlns:serif="http://www.serif.com/" style="fill-rule:evenodd;clip-rule:evenodd;stroke-linejoin:round;stroke-miterlimit:2;"><path d="M545,196c0,-8.837 -7.163,-16 -16,-16l-58,0c-8.837,0 -16,7.163 -16,16l0,58c0,8.837 7.163,16 16,16l58,0c8.837,0 16,-7.163 16,-16l0,-58Zm-55.099,52.658l0,-46.876l-7.179,0l-12.345,8.771l0,6.887l12.247,-8.447l0.163,0l0,39.665l7.114,0Zm25.412,-34.934c-0.15,-4.137 -3.541,-7.037 -8.766,-7.037c-5.16,0 -8.658,2.751 -8.658,6.76c0,3.263 2.111,5.311 6.377,6.292l3.646,0.853c2.453,0.554 3.285,1.407 3.285,2.857c0,1.834 -1.706,2.986 -4.479,2.986c-2.815,0 -4.414,-1.152 -4.841,-3.498l-4.564,0c0.427,4.266 3.796,7.017 9.405,7.017c5.289,0 9.106,-2.815 9.106,-6.91c0,-3.241 -1.748,-5.033 -6.333,-6.099l-3.647,-0.832c-2.431,-0.554 -3.455,-1.514 -3.455,-2.922c0,-1.791 1.663,-3.007 4.158,-3.007c2.581,0 4.18,1.365 4.436,3.54l4.33,0Zm10.044,-6.632l0,-5.31l-4.627,0l0,5.31l-3.263,0l0,3.647l3.263,0l0,12.881c0,4.329 1.77,6.057 6.312,6.057c1.024,0 2.047,-0.086 2.559,-0.214l0,-3.646c-0.298,0.064 -1.045,0.106 -1.514,0.106c-1.877,0 -2.73,-0.874 -2.73,-2.815l0,-12.369l4.266,0l0,-3.647l-4.266,0Z" style="fill:#fff;"/><path d="M400,46c0,-8.837 -7.163,-16 -16,-16c-37.464,0 -130.536,0 -168,0c-8.837,0 -16,7.163 -16,16c0,16.363 0,41.637 0,58c0,8.837 7.163,16 16,16c37.464,0 130.536,0 168,0c8.837,0 16,-7.163 16,-16c0,-16.363 0,-41.637 0,-58Zm-172.459,53.284c10.363,0 17.737,-5.587 17.737,-13.546c0,-5.945 -4.223,-10.655 -10.395,-12.02l0,-0.162c5.295,-1.559 8.641,-5.522 8.641,-10.428c0,-7.244 -6.659,-12.474 -15.983,-12.474c-9.29,0 -16.047,5.263 -16.047,12.442c0,4.97 3.411,8.966 8.706,10.46l0,0.162c-6.173,1.332 -10.396,6.043 -10.396,12.02c0,7.927 7.342,13.546 17.737,13.546Zm78.03,-32.225c-1.234,-9.778 -9.258,-16.308 -19.881,-16.308c-13.091,0 -21.473,9.356 -21.473,24.202c0,14.943 8.317,24.234 21.473,24.234c10.785,0 18.127,-5.685 19.914,-15.366l-7.245,0c-1.462,5.653 -6.107,8.999 -12.636,8.999c-8.609,0 -14.067,-6.919 -14.067,-17.867c0,-10.85 5.523,-17.835 14.034,-17.835c6.367,0 11.37,3.931 12.669,9.941l7.212,0Zm84.625,31.348l-10.493,-19.166c5.717,-1.917 9.096,-7.049 9.096,-13.384c0,-8.738 -6.01,-14.326 -15.658,-14.326l-18.159,0l0,46.876l7.276,0l0,-18.029l10.006,0l9.55,18.029l8.382,0Zm-40.38,0l-16.925,-46.876l-7.861,0l-16.925,46.876l7.569,0l4.288,-12.669l17.867,0l4.288,12.669l7.699,0Zm-122.275,-4.97c-5.977,0 -10.233,-3.443 -10.233,-8.219c0,-4.808 4.256,-8.251 10.233,-8.251c5.978,0 10.201,3.411 10.201,8.251c0,4.776 -4.223,8.219 -10.201,8.219Zm101.452,-34.11l6.985,20.564l-14.164,0l6.984,-20.564l0.195,0Zm43.271,-1.689c5.62,0 9.031,3.184 9.031,8.414c0,5.36 -3.216,8.446 -8.836,8.446l-10.201,0l0,-16.86l10.006,0Zm-144.723,13.482c-5.197,0 -8.803,-3.054 -8.803,-7.342c0,-4.321 3.606,-7.342 8.803,-7.342c5.166,0 8.804,3.021 8.804,7.342c0,4.288 -3.671,7.342 -8.804,7.342Z" style="fill:#fff;"/><path d="M95.819,33.992l0,82.058c0,2.311 1.975,3.95 4.202,3.95c2.227,0 4.16,-1.597 4.16,-3.95l0,-82.058c0,-2.353 -1.975,-3.992 -4.16,-3.992c-2.185,0 -4.202,1.681 -4.202,3.992Zm-52.899,67.058l29.916,0c7.479,0 11.051,-3.529 11.051,-11.05l0,-30c0,-7.479 -3.572,-11.008 -11.051,-11.008l-29.916,0c-7.479,0 -11.092,3.529 -11.092,11.008l0,30c0,7.521 3.613,11.05 11.092,11.05Zm84.286,0l29.874,0c7.479,0 11.092,-3.529 11.092,-11.05l0,-30c0,-7.479 -3.613,-11.008 -11.092,-11.008l-29.874,0c-7.479,0 -11.093,3.529 -11.093,11.008l0,30c0,7.521 3.614,11.05 11.093,11.05Zm0.294,-8.109c-2.185,0 -3.277,-1.092 -3.277,-3.319l0,-29.202c0,-2.269 1.092,-3.319 3.277,-3.319l29.244,0c2.185,0 3.319,1.05 3.319,3.319l0,29.202c0,2.227 -1.134,3.319 -3.319,3.319l-29.244,0Z" style="fill:#fff;fill-rule:nonzero;"/><g><path d="M483.607,107.787c0,-3.167 -2.571,-5.738 -5.738,-5.738l-37.705,0c-3.167,0 -5.738,2.571 -5.738,5.738l0,11.475c0,3.167 2.571,5.738 5.738,5.738l37.705,0c3.167,0 5.738,-2.571 5.738,-5.738l0,-11.475Z" style="fill:#fff;"/><path d="M565.574,107.787c0,-3.167 -2.571,-5.738 -5.738,-5.738l-37.705,0c-3.167,0 -5.738,2.571 -5.738,5.738l0,11.475c0,3.167 2.571,5.738 5.738,5.738l37.705,0c3.167,0 5.738,-2.571 5.738,-5.738l0,-11.475Z" style="fill:#fff;"/><path d="M494.262,25c-3.166,0 -5.737,2.571 -5.737,5.738l0,37.705c0,3.166 2.571,5.737 5.737,5.737l11.476,0c3.166,0 5.737,-2.571 5.737,-5.737l0,-37.705c0,-3.167 -2.571,-5.738 -5.737,-5.738l-11.476,0Z" style="fill:#fff;"/></g><path d="M766.307,53.377c-12.98,-15.686 -38.017,-27.867 -66.315,-27.867c-28.236,0 -53.273,12.181 -66.252,27.867c-2.277,2.707 -2.461,5.844 0.307,8.551l8.858,8.797c14.088,-15.995 33.465,-25.899 57.087,-25.899c23.684,0 43.062,9.904 57.087,25.899l8.92,-8.797c2.707,-2.707 2.522,-5.844 0.308,-8.551Zm-66.315,6.705c-20.054,0 -37.771,9.597 -46.321,21.654l13.902,13.841c6.829,-9.043 19.255,-16.24 32.419,-16.179c13.226,0 25.652,7.136 32.481,16.179l13.841,-13.841c-8.551,-12.057 -26.206,-21.654 -46.322,-21.654Zm0,34.511c-9.781,0 -17.962,5.844 -21.592,11.995l12.796,12.304c3.752,3.691 6.09,5.598 8.796,5.598c2.769,0 5.106,-1.907 8.859,-5.598l12.733,-12.304c-3.568,-6.151 -11.749,-11.995 -21.592,-11.995Z" style="fill:#fff;fill-rule:nonzero;"/><path d="M131.897,155.082c0,-2.564 -2.078,-4.642 -4.642,-4.642c0,0 -0.001,0 -0.001,0c-1.5,0 -2.888,0.795 -3.645,2.089c-7.461,13.13 -11.609,30.515 -13.652,50.599c-0.036,0.354 -0.054,0.71 -0.054,1.066c0,1.836 0,8.063 0,12.463c0,2.936 1.222,5.739 3.373,7.737c1.732,1.608 3.837,3.563 5.57,5.171c2.151,1.998 3.373,4.801 3.373,7.737c0,12.217 0,45.378 0,57.859c0,2.673 2.167,4.839 4.839,4.839c0,0 0,0 0,0c1.283,0 2.514,-0.51 3.421,-1.417c0.908,-0.908 1.418,-2.138 1.418,-3.422c0,-22.632 0,-117.874 0,-140.079Zm-43.109,139.639c0,2.916 -2.363,5.279 -5.278,5.279l0,0c-2.916,0 -5.279,-2.363 -5.279,-5.279l0,-84.075c0,-2.64 -0.99,-5.185 -2.774,-7.132c-4.625,-4.98 -7.527,-10.496 -7.346,-16.494c0.002,-0.036 0.002,-0.072 0.002,-0.107c0.001,-1.099 0.001,-26.011 0.001,-34.275c0,-1.457 1.181,-2.638 2.637,-2.638l0.004,0c1.456,0 2.637,1.181 2.637,2.638l0,32.553c0,0.971 0.788,1.759 1.76,1.759c0.972,0 1.759,-0.788 1.759,-1.759c0,-6.091 0,-26.271 0,-32.992c0,-1.214 0.985,-2.199 2.2,-2.199c1.214,0 2.199,0.985 2.199,2.199c0,6.568 0,25.985 0,32.552c0,1.214 0.985,2.199 2.2,2.199l0,0c1.457,0 2.639,-1.182 2.639,-2.639c0,-6.954 0,-25.685 0,-32.112c0,-1.214 0.985,-2.199 2.199,-2.199c1.215,0 2.2,0.985 2.2,2.199c0,6.721 0,26.901 0,32.992c0,0.971 0.787,1.759 1.759,1.759c0.972,0 1.76,-0.788 1.76,-1.759c0,-5.964 0,-25.434 0,-32.553c0,-1.457 1.181,-2.638 2.637,-2.638l0.004,0c1.456,0 2.637,1.181 2.637,2.638l0,34.281c0,0.035 0.001,0.069 0.002,0.104c0.178,5.982 -3.017,11.484 -7.705,16.468c-1.823,1.952 -2.837,4.523 -2.837,7.194c-0.017,15.435 -0.017,67.272 -0.017,84.036Z" style="fill:#fff;"/><path d="M323.928,187.241l-11.35,0l0,-0.255l12.015,-15.544c1.125,-1.482 1.585,-2.352 1.585,-3.477c0,-1.84 -1.38,-2.965 -3.323,-2.965l-16.668,0c-1.841,0 -3.119,1.176 -3.119,2.914c0,1.892 1.329,3.017 3.119,3.017l10.839,0l0,0.256l-12.118,15.492c-1.176,1.431 -1.533,2.301 -1.533,3.528c0,1.687 1.278,2.965 3.17,2.965l17.383,0c1.841,0 3.17,-1.125 3.17,-3.016c0,-1.79 -1.278,-2.915 -3.17,-2.915Zm24.44,19.941l-7.669,0l0,-0.205l8.283,-10.635c1.073,-1.278 1.534,-2.198 1.534,-3.272c0,-1.739 -1.381,-2.812 -3.17,-2.812l-12.425,0c-1.738,0 -2.965,1.073 -2.965,2.71c0,1.789 1.227,2.812 2.965,2.812l7.005,0l0,0.255l-8.181,10.431c-1.074,1.329 -1.534,2.249 -1.534,3.425c0,1.636 1.227,2.812 3.068,2.812l13.089,0c1.79,0 2.966,-1.022 2.966,-2.761c0,-1.687 -1.176,-2.76 -2.966,-2.76Zm-53.276,77.818c19.122,0 35.023,-10.175 42.028,-27.047c1.022,-2.403 0.869,-4.346 -0.307,-5.522c-1.023,-0.972 -2.863,-1.125 -4.755,-0.307c-4.244,1.79 -9.459,2.659 -14.93,2.659c-22.752,0 -37.733,-14.521 -37.733,-36.455c0,-6.085 1.278,-12.885 3.017,-16.464c1.124,-2.25 1.073,-4.141 0.051,-5.368c-1.023,-1.228 -3.017,-1.432 -5.471,-0.512c-16.975,6.34 -28.326,23.878 -28.326,43.358c0,26.229 19.685,45.658 46.426,45.658Zm30.268,-60.179l-6.596,0l0,-0.204l7.107,-9.101c1.023,-1.33 1.432,-2.097 1.432,-3.119c0,-1.585 -1.227,-2.608 -2.914,-2.608l-11.198,0c-1.636,0 -2.761,1.023 -2.761,2.608c0,1.636 1.176,2.658 2.761,2.658l5.88,0l0,0.205l-6.953,8.999c-1.023,1.278 -1.432,2.096 -1.432,3.221c-0.051,1.483 1.125,2.607 2.812,2.607l11.862,0c1.636,0 2.71,-1.022 2.71,-2.658c0,-1.585 -1.074,-2.608 -2.71,-2.608Z" style="fill:#fff;fill-rule:nonzero;"/><path d="M756.37,224.976c0,-5.688 -7.851,-10.578 -17.677,-10.578l-20.216,0c-2.68,0 -3.667,-0.517 -5.313,-2.304l-33.051,-35.354c-1.082,-1.129 -2.304,-1.74 -3.761,-1.74l-6.77,0c-1.27,0 -1.975,1.175 -1.364,2.492l17.113,36.812l-24.964,2.774l-8.933,-15.562c-0.658,-1.175 -1.74,-1.692 -3.291,-1.692l-2.21,0c-1.363,0 -2.303,0.846 -2.303,2.209l0,45.934c0,1.316 0.94,2.209 2.303,2.209l2.21,0c1.551,0 2.633,-0.517 3.291,-1.692l8.933,-15.562l24.964,2.727l-17.113,36.859c-0.611,1.317 0.094,2.492 1.364,2.492l6.77,0c1.457,0 2.679,-0.611 3.761,-1.74l33.051,-35.402c1.646,-1.739 2.633,-2.256 5.313,-2.256l20.216,0c9.826,0 17.677,-4.89 17.677,-10.626Z" style="fill:#fff;fill-rule:nonzero;"/><g><path d="M855.055,150c1.104,0 2,0.895 2,2l0,0.822l0.412,0c0.265,0 0.519,0.105 0.706,0.292c0.187,0.188 0.293,0.442 0.293,0.707c0,1.342 0,3.714 0,5.057c0,0.265 -0.106,0.519 -0.293,0.706c-0.187,0.187 -0.441,0.293 -0.706,0.293c-0.232,0 -0.412,0 -0.412,0l0,15.52c0,8.466 4.323,25.579 9.876,36.685c5.644,11.287 7.055,19.753 7.055,35.273l0,48.284c0,1.975 -1.532,3.611 -3.502,3.74c-3.847,0.252 -9.484,0.621 -9.484,0.621l-22,0c0,0 -5.637,-0.369 -9.484,-0.621c-1.97,-0.129 -3.502,-1.765 -3.502,-3.74c0,-11.647 0,-48.284 0,-48.284c0,-15.52 1.411,-23.986 7.055,-35.273c5.553,-11.106 9.876,-28.219 9.876,-36.685l0,-15.52l-0.412,0c-0.265,0 -0.519,-0.106 -0.706,-0.293c-0.187,-0.187 -0.293,-0.441 -0.293,-0.706c0,-1.343 0,-3.715 0,-5.057c0,-0.265 0.106,-0.519 0.293,-0.707c0.187,-0.187 0.441,-0.292 0.706,-0.292c0.232,0 0.412,0 0.412,0l0,-0.822c0,-1.105 0.896,-2 2,-2l10.11,0Z" style="fill:#fff;"/><path d="M973.986,290l0,0c0,5.523 -4.477,10 -10,10l-70,0c-5.523,0 -10,-4.477 -10,-10l0,0l90,0Zm-19,-43c9.383,0 17,7.618 17,17c0,9.383 -7.617,17 -17,17c-0.896,0 -1.776,-0.069 -2.635,-0.203c-0.592,0.899 -1.278,1.744 -2.051,2.517c-3.001,3 -7.07,4.686 -11.314,4.686l-20,0c-4.243,0 -8.313,-1.686 -11.314,-4.686c-3,-3.001 -4.686,-7.071 -4.686,-11.314l0,-26c0,-0.53 0.211,-1.039 0.586,-1.414c0.375,-0.375 0.884,-0.586 1.414,-0.586c8.268,0 39.732,0 48,0c0.53,0 1.039,0.211 1.414,0.586c0.375,0.375 0.586,0.884 0.586,1.414c0,0.551 0,1 0,1Zm0,6.8l0,18.2c0,0.74 -0.051,1.474 -0.152,2.199c0.051,0.001 0.101,0.001 0.152,0.001c5.63,0 10.2,-4.57 10.2,-10.2c0,-5.629 -4.57,-10.2 -10.2,-10.2Z" style="fill:#fff;"/></g><path d="M921.242,50.526l-5.139,-9.136c-3.645,-6.606 1.174,-16.312 9.581,-16.382l11.333,0c0.09,0.004 0.179,0.008 0.269,0.012c2.263,0.307 3.611,3.271 1.899,5.061c-0.543,0.568 -0.962,0.873 -2.168,0.927c-3.801,0 -7.603,-0.031 -11.404,0.001c-3.412,0.085 -6.109,4.126 -4.269,7.461l13.277,23.604c3.894,-1.859 8.2,-2.959 12.758,-3.06c0.284,-0.004 0.567,-0.006 0.851,-0.005c15.103,0.144 29.322,11.776 32.196,26.758c3.951,20.596 -15.296,43.129 -38.65,38.65c-13.331,-2.556 -24.436,-14.127 -26.409,-27.594c-1.769,-12.071 4.176,-24.508 14.096,-31.682l-4.811,-8.552l-17.093,29.301c2.288,2.871 3.191,6.885 1.47,10.455c-3.18,6.596 -14.516,7.274 -18.024,0c-0.209,-0.435 -0.379,-0.881 -0.512,-1.337l-5.783,0c-2.161,17.471 -19.06,33.22 -38.934,29.409c-13.331,-2.556 -24.436,-14.127 -26.409,-27.594c-2.677,-18.269 12.313,-37.373 32.012,-37.809c0.284,-0.004 0.567,-0.006 0.851,-0.005c4.536,0.043 8.992,1.123 13.085,3.018l6.963,-12.475l-4.984,-8.544l-12.277,0c-2.71,-0.085 -2.654,-0.904 -2.947,-2.438c-0.329,-1.728 1.1,-3.504 2.947,-3.562l30,0c0.063,0.002 0.126,0.004 0.188,0.006c2.265,0.214 2.213,0.909 2.601,1.89c0.693,1.748 -0.64,3.975 -2.601,4.098c-0.062,0.004 -0.125,0.004 -0.188,0.006l-10.777,0l24.017,41.172c0.526,-0.102 1.07,-0.16 1.632,-0.171c0.129,-0.001 0.128,-0.001 0.256,0c0.857,0.016 1.692,0.161 2.49,0.414l18.607,-31.897Zm11.108,19.748c-5.388,3.907 -9.43,9.686 -10.784,16.293c-2.482,12.117 4.549,25.495 15.948,30.319c12.588,5.328 28.829,-0.71 34.841,-13.179c6.159,-12.775 0.241,-30.021 -12.935,-36.177c-3.604,-1.684 -7.562,-2.534 -11.578,-2.521c-3.562,0.034 -7.06,0.843 -10.292,2.271l13.082,23.257c1.185,2.347 0.071,3.202 -0.806,3.865c-1.368,1.033 -3.493,0.57 -4.424,-0.923l-13.052,-23.205Zm-69.873,-3.162c-3.346,-1.406 -6.966,-2.115 -10.635,-2.103c-12.275,0.117 -23.794,9.444 -26.276,21.558c-2.482,12.117 4.549,25.495 15.948,30.319c12.588,5.328 28.829,-0.71 34.841,-13.179c1.323,-2.745 2.089,-5.696 2.345,-8.699l-26.683,0c-0.727,-0.027 -0.925,-0.117 -1.293,-0.293c-1.489,-0.711 -2.235,-2.389 -1.326,-4.169l13.079,-23.434Zm35.13,21.803c-1.186,0.974 -1.871,2.592 -1.451,4.141c0.595,2.199 3.291,3.538 5.415,2.639c3.167,-1.341 2.915,-7.603 -1.501,-7.686c-0.053,-0.001 -0.053,-0.001 -0.105,0c-0.265,0.005 -0.525,0.04 -0.778,0.102c-0.087,0.07 -0.177,0.143 -0.272,0.22c-0.381,0.312 -0.834,0.504 -1.308,0.584Zm-4.575,-3.784l-17.243,-29.559l-5.268,9.438c7.008,4.858 12.277,12.27 13.905,20.757c0.207,1.076 0.35,2.158 0.432,3.241l5.855,0c0.493,-1.427 1.284,-2.763 2.319,-3.877Zm-25.343,-15.046l-10.562,18.923l21.424,0c-0.979,-7.37 -4.835,-14.437 -10.862,-18.923Z" style="fill:#fff;"/><path d="M915.177,239.028c-0.055,0.232 -0.279,0.385 -0.515,0.35c-0.237,-0.034 -0.408,-0.243 -0.395,-0.482c0.58,-5.608 0.911,-13.36 -0.917,-17.775c-2.302,-5.561 1.272,-14.737 3.253,-19.07c0.093,-0.205 0.32,-0.312 0.536,-0.253c0.217,0.058 0.359,0.265 0.336,0.488c-0.314,3.51 -0.664,9.954 0.303,15.862c0.878,5.365 -1.023,14.606 -2.601,20.88Z" style="fill:#fff;"/><path d="M928.889,239.52c-0.02,0.226 -0.201,0.404 -0.427,0.42c-0.226,0.017 -0.431,-0.133 -0.483,-0.354c-1.064,-4.12 -2.685,-12.304 0.021,-16.349c2.583,-3.86 3.179,-13.563 3.303,-19.085c0.011,-0.236 0.198,-0.426 0.434,-0.439c0.236,-0.013 0.444,0.155 0.48,0.388c1.193,5.737 2.943,16.035 0.925,19.345c-2.823,4.63 -3.88,12.158 -4.253,16.074Z" style="fill:#fff;"/><path d="M945.794,239.296c-0.041,0.235 -0.255,0.399 -0.492,0.379c-0.238,-0.021 -0.42,-0.22 -0.42,-0.458c0.19,-4.265 0.045,-9.86 -1.569,-13.442c-2.107,-4.676 0.373,-15.506 1.894,-21.102c0.055,-0.226 0.271,-0.375 0.502,-0.346c0.232,0.029 0.405,0.226 0.403,0.459c-0.092,5.035 -0.085,14.05 1.035,18.401c0.966,3.75 -0.24,10.964 -1.353,16.109Z" style="fill:#fff;"/><path d="M59.446,430l81.16,0c8.178,0 13.612,-6.211 13.612,-13.665c0,-2.277 -0.569,-4.554 -1.811,-6.728l-40.632,-72.723c-2.536,-4.555 -7.142,-6.884 -11.749,-6.884c-4.607,0 -9.317,2.329 -11.801,6.884l-40.632,72.774c-1.242,2.123 -1.811,4.4 -1.811,6.677c0,7.454 5.434,13.665 13.664,13.665Zm40.58,-36.128c-3.261,0 -5.124,-1.812 -5.28,-5.125l-0.776,-22.36c-0.155,-3.468 2.381,-5.9 6.004,-5.9c3.623,0 6.263,2.484 6.108,5.952l-0.828,22.257c-0.156,3.416 -2.019,5.176 -5.228,5.176Zm0,19.668c-3.779,0 -6.677,-2.484 -6.677,-6.107c0,-3.675 2.847,-6.108 6.677,-6.108c3.778,0 6.677,2.433 6.677,6.108c0,3.675 -2.899,6.107 -6.677,6.107Z" style="fill:#fff;fill-rule:nonzero;"/></svg>